<svg id="Capa_1" enable-background="new 0 0 511 511" height="512" viewBox="0 0 511 511" width="512" xmlns="http://www.w3.org/2000/svg"><g><g><g><path d="m128.247 129.008v43.492h29.336v-32.283z" fill="#f0b582"/></g><g><path d="m353.252 129.008v43.492h-29.336v-32.283z" fill="#f0b582"/></g><g><path d="m393.941 321.004-153.085 1.996-153.086-1.996-49.854 23.996v166h202.94 202.939v-166z" fill="#c8d1da"/></g><g><path d="m60.748 359.233 29.625-14.233h328.401l25.021 2.281v-2.281l-49.854-23.996-153.085 1.996-153.086-1.996-49.854 23.996v166h22.832z" fill="#92a2b5"/></g><g><path d="m390.249 323h-67.502v67l-82.5 107.663-82.498-107.663v-67h-67.5l-21.999-71 89.333-18.999v21.999l21.111 22.229h123.454l20.767-22.229v-21.999l90.332 18.999z" fill="#92a2b5"/></g><g><circle cx="413.336" cy="346.249" fill="#cad8eb" r="59.749"/></g><g><path d="m180.25 277.675 59.999 163.32 60-163.32" fill="#fff"/></g><g><path d="m307.249 7.5h-133.5l-17.166 90.505h168.334z" fill="#c8d1da"/></g><g><path d="m182.522 75.671 12.931-68.171h-21.704l-17.166 90.505h168.334l-4.36-22.334z" fill="#92a2b5"/></g><g><path d="m157.583 139.003v115.997l22.667 22.675h119.999l22.666-22.675v-115.997l-82.666 25.997z" fill="#f5d9ab"/></g><g><path d="m178.596 167.332 62.26 19.58 82.059-24.912v-22.997l-82.666 25.997-82.666-25.997v115.997l21.013 21.021z" fill="#f0b582"/></g><g><path d="m105.249 122.002 135 42.998 135-42.998v-3.882l-45-20.115h-180l-45 20.115z" fill="#92a2b5"/></g><g><path d="m157.749 115.998 36.046-17.993h-43.546l-45 20.115v3.882l135 42.998 37.5-10.362z" fill="#61748b"/></g><g><path d="m162.439 68.132h156.834v29.873h-156.834z" fill="#5fa6b0"/></g><g><path d="m162.439 68.132v29.873h14.81l5.501-29.873z" fill="#3d7077"/></g><g><path d="m195.249 315 45-34.323 45 34.323-19.56 55.44-24.833-37.438-26.046 37.438z" fill="#cad8eb"/></g><g><path d="m214.81 370.44 25.439-37.438 25.44 37.438-25.44 70.555z" fill="#5fa6b0"/></g><g><path d="m270.249 300-30 30-30-30 30-19.323z" fill="#5fa6b0"/></g><g><path d="m353.252 412.996h29.331v60h-29.331z" fill="#f0b582"/></g><g><path d="m382.583 412.996h60.334v90.009h-60.334z" fill="#f5d9ab"/></g><g><path d="m375.083 330h15v29.334h-15z" fill="#fff"/></g><g><path d="m390.75 315h15v15h-15z" fill="#fff"/></g><g><path d="m30.416 120h15v15h-15z" fill="#faef93"/></g><g><path d="m435.206 120h15v15h-15z" fill="#faef93"/></g></g><g><path d="m210.249 225.501h60v15h-60z"/><path d="m270.25 60.632h15v15h-15z"/><path d="m30.416 420h15v91h-15z"/><path d="m30.416 390.001h15v15h-15z"/><path d="m480.585 346.082c0-20.773-9.364-40.075-25.691-52.955l-9.29 11.776c12.698 10.018 19.981 25.027 19.981 41.179 0 28.902-23.514 52.417-52.417 52.417s-52.417-23.514-52.417-52.417 23.514-52.417 52.417-52.417c6.675 0 13.174 1.235 19.316 3.672l5.53-13.943c-7.911-3.138-16.27-4.729-24.847-4.729-.228 0-.452.015-.68.017l10.458-32.287-92.531-19.68v-46.715h30.336v-45.51l21.998-7.006v-14.227l-50.9-22.751-18.421-90.506h-145.889l-18.889 90.505-50.9 22.751v14.227l22.998 7.325v45.192h29.336v46.727l-91.423 19.665 21.652 69.879-49.896 24.017v34.712h15v-16.203l59.998 57.084v95.119h15v-101.551l-66.887-63.639 31.806-15.31h64.916v29.5h15v-44.5h-69.472l-17.937-57.891 72.244-15.539v16.036l23.695 23.704 66.471 180.934 66.47-180.934 23.695-23.703v-16.055l73.133 15.554-7.541 23.28c-18.712 4.929-34.253 17.724-42.89 34.615h-37.87v71.957l-75 97.875-74.998-97.875v-12.457h-15v17.542l89.998 117.45 90-117.45v-62.043h17.342c-1.189 5.005-1.837 10.217-1.837 15.581 0 25.671 14.426 48.031 35.594 59.415h-35.594v75h29.331v30.009h75.334v-105.009h-5.426c21.168-11.383 35.594-33.743 35.594-59.414zm-134.833-181.082h-15.336v-20.848l15.336-4.885zm-177.292-89.368h86.789v-15h-83.944l8.655-45.632h121.112l8.908 45.632h-9.73v15h12.659l2.903 14.874h-150.173zm-16.611 29.873h176.8l30.657 13.703-119.057 37.921-119.057-37.921zm-16.102 59.495v-25.414l14.336 4.566v20.848zm87.889 137.781 16.613-12.672 16.613 12.672-16.613 16.613zm-12.034 9.179 20.171 20.171-15.271 22.474-13.31-36.231zm57.294 0 8.411 6.415-13.31 36.231-15.272-22.474zm-10.383-26.785h30.991l-6.783 18.464zm-60.735 18.464-6.783-18.464h30.99zm25.088 68.289 17.383-25.582 17.383 25.582-17.383 47.318zm74.276-101.753h-113.785l-18.274-18.28v-102.965l75.166 23.941 75.166-23.941v102.964zm92.941 150.321h45.334v15h-45.334zm-29.331 45v-45h14.331v45zm74.665 30.009h-45.334v-15.009h45.334zm0-30.009h-45.334v-15h45.334z"/><path d="m60.75 195h15v-14.623h14.623v-15h-14.623v-14.623h-15v14.623h-14.623v15h14.623z"/><path d="m404.872 195h15v-14.623h14.623v-15h-14.623v-14.623h-15v14.623h-14.623v15h14.623z"/></g></g></svg>